Coordinates
version=1
nRows=10
nColumns=38
inDegrees=yes

Units are S.I. units (second, meters, Newtons, ...)
Angles are in degrees.

endheader
time	pelvis_tilt	pelvis_list	pelvis_rotation	pelvis_tx	pelvis_ty	pelvis_tz	hip_flexion_r	hip_adduction_r	hip_rotation_r	knee_angle_r	ankle_angle_r	subtalar_angle_r	mtp_angle_r	hip_flexion_l	hip_adduction_l	hip_rotation_l	knee_angle_l	ankle_angle_l	subtalar_angle_l	mtp_angle_l	lumbar_extension	lumbar_bending	lumbar_rotation	arm_flex_r	arm_add_r	arm_rot_r	elbow_flex_r	pro_sup_r	wrist_flex_r	wrist_dev_r	arm_flex_l	arm_add_l	arm_rot_l	elbow_flex_l	pro_sup_l	wrist_flex_l	wrist_dev_l
      1.31000000	     -0.89924511	      5.52755034	      5.49933004	     -0.57631078	      0.90790210	     -0.21635685	      4.83421125	     -4.32923722	     -2.74389464	    -61.15922281	    -18.09325568	    -12.95378587	     23.71528867	     21.62590637	     11.03697076	      3.66343421	    -27.17798323	      1.44732130	     -0.51896683	      3.42541342	     -5.05379159	     -5.80696711	      0.99188619	     -5.75768075	    -18.37965362	      9.54303528	     32.08735120	     86.51662706	      0.00000000	      0.00000000	     -5.00024394	    -15.62233968	     19.94297836	     17.43801611	     86.51662706	      0.00000000	      0.00000000
      1.32000000	     -0.95476914	      5.59731610	      5.08577326	     -0.56532639	      0.90945802	     -0.21656487	      7.01613719	     -4.35086017	     -2.12819695	    -63.20129485	    -17.35646178	    -14.36321790	     22.58135944	     20.71810892	     10.87138212	      2.94404485	    -26.82579180	      2.31512493	      0.18047403	      3.05518197	     -5.07525445	     -5.91756525	      0.80444719	     -5.65342284	    -18.30620186	      9.93844491	     31.72694010	     86.51662706	      0.00000000	      0.00000000	     -4.79855437	    -15.79106674	     19.64531568	     17.94423644	     86.51662706	      0.00000000	      0.00000000
      1.33000000	     -0.98931053	      5.59461027	      4.69082906	     -0.55442126	      0.91114310	     -0.21678542	      9.14206226	     -4.26069165	     -1.57453724	    -64.85684342	    -16.43335580	    -15.25285517	     21.52255809	     19.75374654	     10.67668826	      2.40527495	    -26.39894816	      3.08297876	      0.72930948	      2.73511006	     -5.12068789	     -5.93492039	      0.59545775	     -5.56462628	    -18.25081381	     10.29664781	     31.38391238	     86.51662706	      0.00000000	      0.00000000	     -4.58410023	    -15.95542648	     19.36162260	     18.46629563	     86.51662706	      0.00000000	      0.00000000
      1.34000000	     -1.00737726	      5.52850221	      4.33518266	     -0.54354788	      0.91290503	     -0.21703857	     11.18850374	     -4.07369732	     -1.08825936	    -66.12024956	    -15.39478123	    -15.60590830	     20.57313918	     18.73291385	     10.46941298	      2.09239996	    -25.90387055	      3.75943647	      1.10283675	      2.47451386	     -5.18428359	     -5.86909276	      0.36069757	     -5.51193539	    -18.20590556	     10.59435336	     31.06078132	     86.51662706	      0.00000000	      0.00000000	     -4.35719713	    -16.11633701	     19.09820088	     19.00076188	     86.51662706	      0.00000000	      0.00000000
      1.35000000	     -1.01476199	      5.40862496	      4.03592266	     -0.53268344	      0.91469649	     -0.21733182	     13.13841294	     -3.81192712	     -0.67756651	    -66.99600226	    -14.28454779	    -15.46646974	     19.74774811	     17.66009431	     10.26060004	      2.02207503	    -25.34840983	      4.35629850	      1.29425153	      2.27579629	     -5.25987203	     -5.73103558	      0.09585169	     -5.50889006	    -18.16585343	     10.81365701	     30.75809367	     86.51662706	      0.00000000	      0.00000000	     -4.11735900	    -16.27519942	     18.85838468	     19.54698830	     86.51662706	      0.00000000	      0.00000000
      1.36000000	     -1.01649426	      5.24448740	      3.80419024	     -0.52181629	      0.91649668	     -0.21768323	     14.98082041	     -3.50310429	     -0.35424706	    -67.49377553	    -13.12780687	    -14.92951208	     19.04353351	     16.54485559	     10.05631974	      2.18139935	    -24.74272420	      4.88572216	      1.31502550	      2.13445379	     -5.34168046	     -5.53194693	     -0.20241018	     -5.56075413	    -18.12731009	     10.94364768	     30.47361539	     86.51662706	      0.00000000	      0.00000000	     -3.86370129	    -16.43370200	     18.64286985	     20.10615113	     86.51662706	      0.00000000	      0.00000000
      1.37000000	     -1.01515144	      5.04595640	      3.64473967	     -0.51094207	      0.91828676	     -0.21812256	     16.70912479	     -3.17677319	     -0.13194646	    -67.62564612	    -11.94183007	    -14.12408811	     18.44399647	     15.40069778	      9.85878263	      2.53190574	    -24.09933111	      5.35911163	      1.19345110	      2.04000727	     -5.42476176	     -5.28389803	     -0.53538588	     -5.66518751	    -18.08890817	     10.98111904	     30.20204895	     86.51662706	      0.00000000	      0.00000000	     -3.59546879	    -16.59376855	     18.45014500	     20.68029400	     86.51662706	      0.00000000	      0.00000000
      1.38000000	     -1.01063520	      4.82380212	      3.55739284	     -0.50006449	      0.92001366	     -0.21866332	     18.31895170	     -2.85978200	     -0.02272571	    -67.40496714	    -10.74501761	    -13.19367504	     17.92393129	     14.24202150	      9.66755684	      3.01724106	    -23.43208881	      5.78741904	      0.97144454	      1.97766769	     -5.50528120	     -5.00056849	     -0.90184597	     -5.81425225	    -18.05050568	     10.93034380	     29.93539351	     86.51662706	      0.00000000	      0.00000000	     -3.31240682	    -16.75766375	     18.27695630	     21.27155641	     86.51662706	      0.00000000	      0.00000000
      1.39000000	     -1.00153057	      4.58941932	      3.53863031	     -0.48918139	      0.92161383	     -0.21929398	     19.80658220	     -2.57323331	     -0.03295214	    -66.84583992	     -9.56171626	    -12.27724756	     17.45462234	     13.08036833	      9.48059697	      3.57283195	    -22.75428559	      6.18211499	      0.69992045	      1.93046492	     -5.58087271	     -4.69677526	     -1.29829598	     -5.99700797	    -18.01226580	     10.80201860	     29.66388904	     86.51662706	      0.00000000	      0.00000000	     -3.01480071	    -16.92809237	     18.11876923	     21.88165429	     86.51662706	      0.00000000	      0.00000000
      1.40000000	     -0.98659864	      4.35377267	      3.58212524	     -0.47828070	      0.92305397	     -0.21999840	     21.16841507	     -2.33142829	     -0.16015672	    -65.96250884	     -8.42242282	    -11.49359123	     17.00848669	     11.92159671	      9.29510353	      4.13568902	    -22.07646797	      6.55602900	      0.43322110	      1.88154305	     -5.65095599	     -4.38700674	     -1.71961684	     -6.20194838	    -17.97388186	     10.61159862	     29.37734040	     86.51662706	      0.00000000	      0.00000000	     -2.70337644	    -17.10807903	     17.97021803	     22.51159388	     86.51662706	      0.00000000	      0.00000000
